<?xml version="1.0" encoding="utf-8"?>
<!-- Generator: Adobe Illustrator 25.2.3, SVG Export Plug-In . SVG Version: 6.00 Build 0)  -->
<svg version="1.1" id="Camada_1" xmlns="http://www.w3.org/2000/svg" xmlns:xlink="http://www.w3.org/1999/xlink" x="0px" y="0px"
	 viewBox="0 0 252.4 378.7" style="enable-background:new 0 0 252.4 378.7;" xml:space="preserve">
<style type="text/css">
	.st0{fill:none;stroke:#1D63DD;stroke-width:7.9673;stroke-miterlimit:10;}
	.st1{fill:none;stroke:#1D63DD;stroke-width:8.3025;stroke-miterlimit:10;}
	.st2{fill:none;stroke:#1D63DD;stroke-width:7.6987;stroke-miterlimit:10;}
	.st3{fill:#1D63DD;stroke:#1D63DD;stroke-width:6.071;stroke-miterlimit:10;}
	.st4{fill:#1D63DD;stroke:#1D63DD;stroke-width:6.9345;stroke-miterlimit:10;}
	.st5{fill:#1D63DD;stroke:#1D63DD;stroke-width:7.9843;stroke-miterlimit:10;}
	.st6{fill:#1D63DD;}
</style>
<g>
	<path class="st0" d="M194.5,355.6H33.4c-7.4,0-13.3-6-13.3-13.3V120.6c0-7.4,6-13.3,13.3-13.3h161.2c7.4,0,13.3,6,13.3,13.3v221.6
		C207.9,349.6,201.9,355.6,194.5,355.6z"/>
	<path class="st1" d="M185.9,185.7H42c-0.5,0-1-0.4-1-1v-55.2c0-0.5,0.4-1,1-1h143.8c0.5,0,1,0.4,1,1v55.2
		C186.8,185.2,186.4,185.7,185.9,185.7z"/>
	<g>
		<path class="st2" d="M77.1,236.9H42c-0.5,0-1-0.4-1-1V206c0-0.5,0.4-1,1-1h35.1c0.5,0,1,0.4,1,1v29.9
			C78.1,236.5,77.7,236.9,77.1,236.9z"/>
		<path class="st2" d="M131.5,236.9H96.4c-0.5,0-1-0.4-1-1V206c0-0.5,0.4-1,1-1h35.1c0.5,0,1,0.4,1,1v29.9
			C132.5,236.5,132,236.9,131.5,236.9z"/>
		<path class="st2" d="M185.9,236.9h-35.1c-0.5,0-1-0.4-1-1V206c0-0.5,0.4-1,1-1h35.1c0.5,0,1,0.4,1,1v29.9
			C186.8,236.5,186.4,236.9,185.9,236.9z"/>
	</g>
	<g>
		<path class="st2" d="M77.1,284H42c-0.5,0-1-0.4-1-1v-29.9c0-0.5,0.4-1,1-1h35.1c0.5,0,1,0.4,1,1V283C78.1,283.6,77.7,284,77.1,284
			z"/>
		<path class="st2" d="M131.5,284H96.4c-0.5,0-1-0.4-1-1v-29.9c0-0.5,0.4-1,1-1h35.1c0.5,0,1,0.4,1,1V283
			C132.5,283.6,132,284,131.5,284z"/>
		<path class="st1" d="M185.9,331.1h-35.1c-0.5,0-1-0.4-1-1v-77c0-0.5,0.4-1,1-1h35.1c0.5,0,1,0.4,1,1v77
			C186.8,330.7,186.4,331.1,185.9,331.1z"/>
	</g>
	<g>
		<path class="st2" d="M77.1,331.1H42c-0.5,0-1-0.4-1-1v-29.9c0-0.5,0.4-1,1-1h35.1c0.5,0,1,0.4,1,1v29.9
			C78.1,330.7,77.7,331.1,77.1,331.1z"/>
		<path class="st2" d="M131.5,331.1H96.4c-0.5,0-1-0.4-1-1v-29.9c0-0.5,0.4-1,1-1h35.1c0.5,0,1,0.4,1,1v29.9
			C132.5,330.7,132,331.1,131.5,331.1z"/>
		<path class="st2" d="M185.9,299.3c0.5,0,1,0.4,1,1v29.9c0,0.5-0.4,1-1,1h-35.1c-0.5,0-1-0.4-1-1v-29.9c0-0.5,0.4-1,1-1"/>
	</g>
	<path class="st3" d="M132.9,105.6h2.1c0.3,0,0.6,0,0.9,0c0.5,0,0.9,0,1.4,0c2,0,4,0.3,5.9,0.7c0.9,0,1.8,0.2,2.7,0.3
		c0.4,0,0.7,0,1.1,0c1.9-0.5,3.8-0.7,5.7-0.7c0.1,0,0.1,0,0.2,0c0.5-0.2,1-0.4,1.5-0.5v-6.7c0-8.4-6.1-15.3-13.6-15.3
		s-13.6,6.8-13.6,15.3v7.5C129.1,105.7,131,105.6,132.9,105.6z"/>
	<path class="st4" d="M192.4,103.8c0.3,0,0.6,0.1,0.8,0.2c0.1,0,0.2,0,0.3,0V76.5c0-8.4-6.1-15.3-13.6-15.3s-13.6,6.8-13.6,15.3
		v28.2c0.3,0,0.5,0.1,0.8,0.2c1.7-0.7,3.6-1,5.4-1.2c2.6-0.9,5.2-1.4,7.9-1.4c3.8,0,7.3,0.8,10.5,2.3
		C191.2,104.1,191.7,103.8,192.4,103.8z"/>
	<path class="st5" d="M218.8,30.2c-7.5,0-13.6,6.8-13.6,15.3v62.2c2.8,1.9,2.7,6.9,3,10.1c0.3,2.7,0.4,5.5,0.8,8.2
		c0.4,2.6,0.7,5.2,0.1,7.7c-0.1,0.3-0.2,0.5-0.3,0.8c0,0.6,0,1.2,0,1.7c0.1,2-0.1,4-0.4,6c1.1,3.3,1.7,6.8,1.9,10.5
		c0,0.1,0,55.3,0,55.4c2.4,2.2,5.4,4.7,8.6,4.7c7.5,0,13.6-6.8,13.6-15.3v-152C232.4,37.1,226.3,30.2,218.8,30.2z"/>
	<path class="st6" d="M191.4,37c1.2-6,2.4-12.1,3.7-18.1c0-0.2,0.1-0.3,0.1-0.5c0-0.1,0-0.2,0.1-0.3c0.3-1.4-0.2-2.7-1.1-3.8
		c-0.8-1.1-2-1.9-3.4-1.9c-0.1,0-0.2,0-0.3,0c-0.2,0-0.4,0-0.6,0c-6.1-0.1-12.3-0.3-18.4-0.4c-2.8-0.1-5.3,1.6-5.6,4.5
		c-0.3,2.6,1.7,5.6,4.5,5.6c1.9,0,3.9,0.1,5.8,0.1c-22.2,17.7-44.4,35.5-66.6,53.2c-3.7,2.9-7.4,5.9-11,8.8c-5.1,4.1,1.2,12.1,6.4,8
		c25.8-20.6,51.7-41.3,77.5-61.9c0,0,0.1-0.1,0.1-0.1c-0.4,1.9-0.8,3.8-1.1,5.7c-0.5,2.7,1.9,5.3,4.5,5.6
		C188.7,41.8,190.8,39.7,191.4,37z"/>
</g>
</svg>
