<svg width="66" height="66" viewBox="0 0 66 66" fill="none" xmlns="http://www.w3.org/2000/svg">
<circle cx="33" cy="33" r="31.5" fill="white" stroke="#1D63DB" stroke-width="3"/>
<path d="M54.6512 23.2815C53.5104 22.711 52.1654 22.8309 51.1461 23.5987C51.0802 23.6477 51.0178 23.7034 50.9604 23.7607L47.9953 26.7529C47.6392 22.4242 44.0446 19 39.6265 19H24.438C19.7853 18.9983 16 22.7836 16 27.4363V37.562C16 42.2147 19.7853 46 24.438 46H39.6265C44.0632 46 47.673 42.5455 48.0004 38.1915L50.9638 41.1515C51.0212 41.2072 51.0803 41.2578 51.1444 41.3068C51.7384 41.7523 52.4405 41.9784 53.1493 41.9784C53.6606 41.9784 54.1719 41.862 54.6512 41.6224C55.7937 41.0519 56.5025 39.9027 56.5025 38.6285V26.2786C56.5025 25.0011 55.7937 23.8519 54.6512 23.2815ZM39.6265 42.6248H24.438C21.6467 42.6248 19.3752 40.3533 19.3752 37.562V27.4363C19.3752 24.645 21.6467 22.3735 24.438 22.3735H39.6265C42.4178 22.3735 44.6893 24.645 44.6893 27.4363V37.562C44.6893 40.3533 42.4178 42.6248 39.6265 42.6248ZM48.0645 33.483V31.4765L53.1273 26.3664L53.1695 38.5813L48.0645 33.4813V33.483Z" fill="#1D63DB"/>
</svg>
