<svg width="95" height="94" viewBox="0 0 95 94" fill="none" xmlns="http://www.w3.org/2000/svg">
<g clip-path="url(#clip0)">
<path d="M63.4473 53.3029C65.6979 53.3029 67.5293 54.8875 67.5293 56.8357C67.5293 57.86 68.3605 58.6912 69.3848 58.6912C70.409 58.6912 71.2402 57.86 71.2402 56.8357C71.2402 53.4347 68.7075 50.5773 65.3027 49.7998V48.835C65.3027 47.8107 64.4715 46.9795 63.4473 46.9795C62.423 46.9795 61.5918 47.8107 61.5918 48.835V49.7998C58.187 50.5754 55.6543 53.4347 55.6543 56.8357C55.6543 60.8306 59.15 64.0795 63.4473 64.0795C65.6979 64.0795 67.5293 65.6641 67.5293 67.6123C67.5293 69.5606 65.6979 71.1451 63.4473 71.1451C61.1966 71.1451 59.3652 69.5606 59.3652 67.6123C59.3652 66.5881 58.534 65.7568 57.5098 65.7568C56.4855 65.7568 55.6543 66.5881 55.6543 67.6123C55.6543 71.0134 58.187 73.8708 61.5918 74.6483V75.4498C61.5918 76.474 62.423 77.3053 63.4473 77.3053C64.4715 77.3053 65.3027 76.474 65.3027 75.4498V74.6483C68.7075 73.8727 71.2402 71.0134 71.2402 67.6123C71.2402 63.6175 67.7445 60.3686 63.4473 60.3686C61.1966 60.3686 59.3652 58.784 59.3652 56.8357C59.3652 54.8894 61.1966 53.3029 63.4473 53.3029Z" fill="#1D63DD"/>
<path d="M83.7697 49.3329C81.3465 45.557 77.9305 42.5344 73.8949 40.5936C72.9709 40.1502 71.8632 40.538 71.4178 41.462C70.9744 42.386 71.3622 43.4937 72.2862 43.939C79.3221 47.3178 83.8662 54.543 83.8662 62.3434C83.8662 65.6814 83.0442 68.9916 81.4875 71.9158C81.0069 72.8213 81.3502 73.9438 82.2538 74.4244C82.5321 74.5728 82.829 74.6415 83.124 74.6415C83.7883 74.6415 84.4303 74.2834 84.7642 73.6581C86.6049 70.1995 87.5771 66.2863 87.5771 62.3434C87.5771 57.7122 86.2598 53.2127 83.7697 49.3329Z" fill="#1D63DD"/>
<path d="M66.2403 41.9336H66.3479C66.3517 41.9336 66.3535 41.9336 66.3572 41.9336C67.3777 41.9336 68.2071 41.1079 68.2127 40.0874C68.2164 39.0632 67.3907 38.2282 66.3665 38.2227H66.2422C65.218 38.2227 64.3867 39.0539 64.3867 40.0781C64.3867 41.1023 65.2161 41.9336 66.2403 41.9336Z" fill="#1D63DD"/>
<path d="M54.6269 80.7504C47.5928 77.3697 43.0469 70.1445 43.0469 62.3441C43.0469 59.0062 43.8689 55.696 45.4256 52.7718C45.9062 51.8663 45.5629 50.7438 44.6593 50.2632C43.7557 49.7826 42.6313 50.1259 42.1507 51.0295C40.3101 54.4881 39.3359 58.4013 39.3359 62.3441C39.3359 66.9754 40.6533 71.4749 43.1434 75.3547C45.5666 79.1324 48.9825 82.1531 53.0182 84.094C53.2779 84.2183 53.5507 84.2776 53.8216 84.2776C54.5118 84.2776 55.1761 83.8899 55.4952 83.2256C55.9387 82.3034 55.5509 81.1957 54.6269 80.7504Z" fill="#1D63DD"/>
<path d="M60.6736 82.7539H60.5659C59.5362 82.7521 58.7068 83.5759 58.7012 84.6001C58.6956 85.6243 59.5232 86.4593 60.5474 86.4649H60.6717C61.6959 86.4649 62.5272 85.6336 62.5272 84.6094C62.5272 83.5852 61.6978 82.7539 60.6736 82.7539Z" fill="#1D63DD"/>
<path d="M71.8827 31.9456C71.6563 31.4075 71.3799 30.901 71.0589 30.4297H75.8887C80.5941 30.4297 84.4238 26.6 84.4238 21.8945C84.4238 17.1891 80.5941 13.3594 75.8887 13.3594H61.0301C61.9745 11.9863 62.5293 10.3238 62.5293 8.53516C62.5293 3.82969 58.6996 0 53.9941 0H8.53516C3.82969 0 0 3.82969 0 8.53516C0 13.2406 3.82969 17.0703 8.53516 17.0703H23.3938C22.4493 18.4434 21.8945 20.1059 21.8945 21.8945C21.8945 23.6832 22.4493 25.3457 23.3938 26.7188H18.5547C13.8492 26.7188 10.0195 30.5484 10.0195 35.2539C10.0195 37.9573 11.2831 40.3694 13.2518 41.9336C11.2831 43.4978 10.0195 45.9099 10.0195 48.6133C10.0195 51.3167 11.2831 53.7288 13.2518 55.293C11.2831 56.8571 10.0195 59.2692 10.0195 61.9727C10.0195 64.6761 11.2831 67.0882 13.2518 68.6523C11.2831 70.2165 10.0195 72.6286 10.0195 75.332C10.0195 80.0375 13.8492 83.8672 18.5547 83.8672H40.4214C46.1826 90.0292 54.3764 93.8867 63.457 93.8867C80.8502 93.8867 95 79.7369 95 62.3438C95 47.8674 85.1976 35.6398 71.8827 31.9456ZM3.71094 8.53516C3.71094 5.87441 5.87441 3.71094 8.53516 3.71094H53.9941C56.6549 3.71094 58.8184 5.87441 58.8184 8.53516C58.8184 11.1959 56.6549 13.3594 53.9941 13.3594H8.53516C5.87441 13.3594 3.71094 11.1959 3.71094 8.53516ZM25.6055 21.8945C25.6055 19.2338 27.7689 17.0703 30.4297 17.0703H75.8887C78.5494 17.0703 80.7129 19.2338 80.7129 21.8945C80.7129 24.5553 78.5494 26.7188 75.8887 26.7188H64.0137H30.4297C27.7689 26.7188 25.6055 24.5553 25.6055 21.8945ZM13.7305 35.2539C13.7305 32.5932 15.8939 30.4297 18.5547 30.4297H64.0137C64.7614 30.4297 65.4776 30.6041 66.1196 30.914C65.242 30.8397 64.3551 30.8008 63.4589 30.8008C54.7475 30.8008 46.8506 34.3503 41.1376 40.0781H18.5547C15.8939 40.0781 13.7305 37.9146 13.7305 35.2539ZM13.7305 48.6133C13.7305 45.9525 15.8939 43.7891 18.5547 43.7891H37.9647C35.8588 46.6743 34.2297 49.9307 33.1962 53.4375H18.5547C15.8939 53.4375 13.7305 51.274 13.7305 48.6133ZM13.7305 61.9727C13.7305 59.3119 15.8939 57.1484 18.5547 57.1484H32.3445C32.0625 58.8388 31.9141 60.5736 31.9141 62.3438C31.9141 63.856 32.0235 65.3422 32.2295 66.7969H18.5547C15.8939 66.7969 13.7305 64.6334 13.7305 61.9727ZM18.5547 80.1562C15.8939 80.1562 13.7305 77.9928 13.7305 75.332C13.7305 72.6713 15.8939 70.5078 18.5547 70.5078H32.9884C33.9254 73.9979 35.445 77.2524 37.4396 80.1562H18.5547ZM63.457 90.1758C48.1105 90.1758 35.625 77.6903 35.625 62.3438C35.625 46.9972 48.1105 34.5117 63.457 34.5117C78.8036 34.5117 91.2891 46.9972 91.2891 62.3438C91.2891 77.6903 78.8036 90.1758 63.457 90.1758Z" fill="#1D63DD"/>
</g>
<defs>
<clipPath id="clip0">
<rect width="95" height="93.8867" fill="white"/>
</clipPath>
</defs>
</svg>
