<svg width="113" height="78" viewBox="0 0 113 78" fill="none" xmlns="http://www.w3.org/2000/svg">
<path fill-rule="evenodd" clip-rule="evenodd" d="M94.1013 28.9492L56.2905 9.36914L18.4797 28.9492H16.9917V76.0019C16.9917 76.5542 17.4394 77.0019 17.9917 77.0019H94.5748C95.127 77.0019 95.5748 76.5542 95.5748 76.0019V28.9492H94.1013Z" fill="url(#paint0_angular_2165_2884)"/>
<g filter="url(#filter0_d_2165_2884)">
<path fill-rule="evenodd" clip-rule="evenodd" d="M53.0473 1.50471L6.29109 33.787C4.17159 35.2504 3.38027 38.3076 4.52362 40.6156C5.66697 42.9235 8.31203 43.6081 10.4315 42.1447L56.2834 10.4868L102.135 42.1447C104.255 43.6081 106.9 42.9235 108.043 40.6156C109.187 38.3076 108.395 35.2504 106.276 33.787L59.5196 1.50471C58.7037 0.46937 57.5139 -0.0591826 56.2834 0.00526744C55.0529 -0.0591826 53.8632 0.46937 53.0473 1.50471Z" fill="#343742"/>
</g>
<rect x="22.7146" y="38.4609" width="7.48541" height="8.06846" fill="#7281AF" style="mix-blend-mode:multiply"/>
<rect x="22.7139" y="47.2109" width="7.48541" height="8.06846" fill="#7281AF" style="mix-blend-mode:multiply"/>
<rect x="30.7241" y="38.4609" width="7.48541" height="8.06846" fill="#7281AF" style="mix-blend-mode:multiply"/>
<rect x="30.7241" y="47.2109" width="7.48541" height="8.06846" fill="#7281AF" style="mix-blend-mode:multiply"/>
<rect x="73.0027" y="38.4609" width="7.48541" height="8.06846" fill="#7281AF" style="mix-blend-mode:multiply"/>
<rect x="73.0027" y="47.2109" width="7.48541" height="8.06846" fill="#7281AF" style="mix-blend-mode:multiply"/>
<rect x="81.0137" y="38.4609" width="7.48541" height="8.06846" fill="#7281AF" style="mix-blend-mode:multiply"/>
<rect x="81.0137" y="47.2109" width="7.48541" height="8.06846" fill="#7281AF" style="mix-blend-mode:multiply"/>
<rect x="46.032" y="43.0117" width="20.5035" height="34.015" fill="#7281AF" style="mix-blend-mode:multiply"/>
<defs>
<filter id="filter0_d_2165_2884" x="0" y="0" width="112.567" height="50.9141" filterUnits="userSpaceOnUse" color-interpolation-filters="sRGB">
<feFlood flood-opacity="0" result="BackgroundImageFix"/>
<feColorMatrix in="SourceAlpha" type="matrix" values="0 0 0 0 0 0 0 0 0 0 0 0 0 0 0 0 0 0 127 0" result="hardAlpha"/>
<feOffset dy="4"/>
<feGaussianBlur stdDeviation="2"/>
<feComposite in2="hardAlpha" operator="out"/>
<feColorMatrix type="matrix" values="0 0 0 0 0 0 0 0 0 0 0 0 0 0 0 0 0 0 0.25 0"/>
<feBlend mode="normal" in2="BackgroundImageFix" result="effect1_dropShadow_2165_2884"/>
<feBlend mode="normal" in="SourceGraphic" in2="effect1_dropShadow_2165_2884" result="shape"/>
</filter>
<radialGradient id="paint0_angular_2165_2884" cx="0" cy="0" r="1" gradientUnits="userSpaceOnUse" gradientTransform="translate(56.2832 43.1855) rotate(90) scale(33.8164 39.2915)">
<stop stop-color="#C4C4C4"/>
<stop offset="1" stop-color="#C4C4C4" stop-opacity="0.39"/>
</radialGradient>
</defs>
</svg>
