<svg width="38" height="50" viewBox="0 0 38 50" fill="none" xmlns="http://www.w3.org/2000/svg">
<path fill-rule="evenodd" clip-rule="evenodd" d="M1.79639 14.8672C1.2441 14.8672 0.796387 15.3149 0.796387 15.8672V48.8818C0.796387 49.4341 1.2441 49.8818 1.79639 49.8818H36.7031C37.2554 49.8818 37.7031 49.4341 37.7031 48.8818V15.8672C37.7031 15.3149 37.2554 14.8672 36.7031 14.8672H1.79639ZM23.2178 34.0912C23.2178 35.5931 22.3834 36.9001 21.1529 37.574L22.9048 43.3926H15.5945L17.3464 37.5739C16.116 36.9 15.2817 35.593 15.2817 34.0912C15.2817 31.8997 17.0582 30.1231 19.2497 30.1231C21.4412 30.1231 23.2178 31.8997 23.2178 34.0912Z" fill="url(#paint0_angular_2166_3594)"/>
<rect opacity="0.55" x="1.58984" y="14.8672" width="35.3196" height="6.56194" rx="1" fill="#6C8D60" stroke="#4F4F4F" stroke-opacity="0.45" stroke-width="0.5"/>
<path fill-rule="evenodd" clip-rule="evenodd" d="M5.25473 14.046C5.25473 6.31664 11.5206 0.0507812 19.2499 0.0507812C26.9792 0.0507812 33.2451 6.31663 33.2451 14.046V18.1482H33.2097C33.2327 18.2025 33.2447 18.2584 33.2447 18.3156C33.2447 18.8262 32.2864 19.2402 31.1043 19.2402C29.9223 19.2402 28.964 18.8262 28.964 18.3156C28.964 18.2584 28.976 18.2025 28.999 18.1482H28.9646V13.3216C28.9646 8.35104 24.9351 4.3216 19.9646 4.3216H18.5342C13.5637 4.3216 9.53422 8.35105 9.53422 13.3216V18.1482H9.50012C9.52309 18.2025 9.53508 18.2584 9.53508 18.3156C9.53508 18.8262 8.57682 19.2402 7.39474 19.2402C6.21266 19.2402 5.25439 18.8262 5.25439 18.3156C5.25439 18.2584 5.26639 18.2025 5.28935 18.1482H5.25473V14.046Z" fill="white"/>
<defs>
<radialGradient id="paint0_angular_2166_3594" cx="0" cy="0" r="1" gradientUnits="userSpaceOnUse" gradientTransform="translate(19.2498 32.3745) rotate(90) scale(17.5073 18.4534)">
<stop stop-color="#638E72"/>
<stop offset="1" stop-color="#ABEBA5" stop-opacity="0.87"/>
</radialGradient>
</defs>
</svg>
