<svg width="95" height="95" viewBox="0 0 65 95" fill="none" xmlns="http://www.w3.org/2000/svg">
<g clip-path="url(#clip0)">
<path d="M24.5509 55.6239C24.4173 58.5036 25.644 61.3035 27.8395 63.1571V69.6958C27.8395 72.993 30.5231 75.6741 33.8191 75.6741C37.1151 75.6741 39.7987 72.993 39.7987 69.6958V63.1571C41.8977 61.387 43.0984 58.8135 43.0984 56.0637C43.0984 53.5365 42.1 51.1745 40.2886 49.4137C38.4773 47.6528 36.0851 46.7177 33.5574 46.79C28.7322 46.9236 24.7755 50.8034 24.5509 55.6239ZM28.2589 55.7965C28.3944 52.9075 30.7662 50.5808 33.6613 50.501C33.7152 50.4991 33.7671 50.4991 33.8209 50.4991C35.2815 50.4991 36.6549 51.0558 37.7034 52.0744C38.791 53.132 39.3885 54.5496 39.3885 56.0655C39.3885 57.7559 38.6332 59.3349 37.3155 60.3981C36.5361 61.0271 36.0888 61.9678 36.0888 62.979V69.6977C36.0888 70.9482 35.0718 71.965 33.8209 71.965C32.5701 71.965 31.5531 70.9482 31.5531 69.6977V62.979C31.5531 61.9678 31.1058 61.0271 30.3264 60.3999C28.9289 59.2699 28.1754 57.5926 28.2589 55.7965Z" fill="#1D63DD"/>
<path d="M57.9459 37.6233V24.1211C57.9459 10.8211 47.1225 0 33.8197 0C20.5168 0 9.69343 10.8211 9.69343 24.1211V37.5992C5.16884 42.223 2.02872 48.0826 0.729611 54.4228C0.52361 55.4266 1.17131 56.4062 2.17533 56.6122C3.17935 56.8182 4.15925 56.1706 4.36525 55.1668C7.21586 41.2638 19.6019 31.1719 33.8197 31.1719C50.3981 31.1719 63.8847 44.6556 63.8847 61.2305C63.8847 77.8054 50.3981 91.2891 33.8197 91.2891C19.5982 91.2891 7.21214 81.1953 4.36525 67.2904C4.15925 66.2866 3.17935 65.6391 2.17533 65.845C1.17131 66.051 0.52361 67.0307 0.729611 68.0345C2.26627 75.5436 6.38814 82.3828 12.3343 87.2887C18.3622 92.2613 25.9916 95 33.8197 95C52.4451 95 67.5964 79.852 67.5964 61.2305C67.5964 52.0496 63.9125 43.7148 57.9459 37.6233ZM33.8197 3.71094C45.0755 3.71094 54.2342 12.8677 54.2342 24.1211V34.3466C52.6103 33.1108 50.8732 32.018 49.0378 31.0884V24.1211C49.0378 15.7325 42.21 8.90625 33.8197 8.90625C25.4293 8.90625 18.6016 15.7325 18.6016 24.1211V31.0865C16.781 32.0031 15.0402 33.0867 13.4052 34.3262V24.1211C13.4052 12.8677 22.5639 3.71094 33.8197 3.71094ZM22.3133 29.4853V24.1211C22.3133 17.7772 27.4745 12.6172 33.8197 12.6172C40.1649 12.6172 45.326 17.7772 45.326 24.1211V29.4797C41.7331 28.1734 37.858 27.4609 33.8197 27.4609C29.8741 27.4609 25.9786 28.1586 22.3133 29.4853Z" fill="#1D63DD"/>
<path d="M56.2625 59.9187C55.9173 60.2638 55.7188 60.7425 55.7188 61.2305C55.7188 61.7185 55.9173 62.1972 56.2625 62.5423C56.6077 62.8874 57.0865 63.0859 57.5746 63.0859C58.0627 63.0859 58.5415 62.8874 58.8867 62.5423C59.2319 62.1972 59.4305 61.7185 59.4305 61.2305C59.4305 60.7425 59.2319 60.2638 58.8867 59.9187C58.5415 59.5735 58.0627 59.375 57.5746 59.375C57.0865 59.375 56.6077 59.5735 56.2625 59.9187Z" fill="#1D63DD"/>
<path d="M49.8256 41.2415C45.3066 37.6196 39.622 35.625 33.8188 35.625C32.7943 35.625 31.9629 36.4563 31.9629 37.4805C31.9629 38.5047 32.7943 39.3359 33.8188 39.3359C44.0279 39.3359 52.7913 46.2624 55.1334 56.1817C55.3357 57.0353 56.0966 57.6104 56.9391 57.6104C57.0802 57.6104 57.2231 57.5938 57.366 57.5604C58.3644 57.3247 58.9806 56.3265 58.7467 55.3282C57.4439 49.8101 54.276 44.8077 49.8256 41.2415Z" fill="#1D63DD"/>
<path d="M1.94309 63.0859C2.96753 63.0859 3.79895 62.2547 3.79895 61.2305C3.79895 60.2063 2.96753 59.375 1.94309 59.375H1.85586C0.831427 59.375 0 60.2063 0 61.2305C0 62.2547 0.831427 63.0859 1.85586 63.0859H1.94309Z" fill="#1D63DD"/>
</g>
<defs>
<clipPath id="clip0">
<rect width="67.5962" height="95" fill="white"/>
</clipPath>
</defs>
</svg>
