<svg width="185" height="84" viewBox="0 0 185 84" fill="none" xmlns="http://www.w3.org/2000/svg">
<path d="M0.274902 39.7779V10.8208H7.68682L8.34396 14.9444H8.72602C9.38316 13.9517 10.1855 13.0964 11.1177 12.3633C12.0499 11.6302 13.0891 11.0804 14.22 10.7139C15.3585 10.3473 16.5582 10.1641 17.8419 10.1641C19.821 10.1641 21.502 10.5612 22.8927 11.3477C24.2834 12.1342 25.3455 13.3332 26.0791 14.9444H26.4611C27.1183 13.9517 27.9206 13.0964 28.8528 12.3633C29.785 11.6302 30.8242 11.0804 31.9781 10.7139C33.1319 10.3473 34.3315 10.1641 35.577 10.1641C37.5867 10.1641 39.2906 10.5382 40.6813 11.2866C42.072 12.035 43.1418 13.1728 43.8906 14.6924C44.6395 16.2121 45.0139 18.1441 45.0139 20.4884V39.7702H36.0202V21.8706C36.0202 21.0688 35.9285 20.3815 35.7451 19.8088C35.5618 19.2361 35.302 18.7626 34.9734 18.3808C34.6448 17.999 34.2246 17.7088 33.705 17.5255C33.193 17.3422 32.6428 17.2506 32.0545 17.2506C31.0993 17.2506 30.2512 17.495 29.5023 17.9913C28.7535 18.4877 28.1728 19.1444 27.7754 19.9692C27.3704 20.7939 27.1718 21.7561 27.1718 22.8557V39.7779H18.1781V21.8706C18.1781 21.0688 18.0864 20.3815 17.903 19.8088C17.7197 19.2437 17.4599 18.7626 17.1313 18.3808C16.8027 17.999 16.3825 17.7088 15.8629 17.5255C15.3509 17.3422 14.8007 17.2506 14.2124 17.2506C13.2572 17.2506 12.4091 17.495 11.6602 17.9913C10.9114 18.4877 10.323 19.1444 9.90276 19.9692C9.4825 20.7939 9.26854 21.7561 9.26854 22.8557V39.7779H0.274902Z" fill="black"/>
<path d="M61.3355 40.4418C58.2256 40.4418 55.8186 39.5789 54.1146 37.8607C52.4107 36.1425 51.5625 33.5003 51.5625 29.9494V10.8203H60.5638V28.6818C60.5638 29.453 60.6631 30.125 60.8694 30.713C61.0681 31.301 61.3508 31.7898 61.7176 32.1945C62.0844 32.5992 62.5505 32.8894 63.1159 33.0727C63.6814 33.256 64.3003 33.3476 64.9575 33.3476C66.0196 33.3476 66.9518 33.1032 67.7541 32.6069C68.5564 32.1105 69.1983 31.4385 69.672 30.5756C70.1458 29.7127 70.3903 28.7734 70.3903 27.7425V10.8203H79.3916V39.7774H71.9797L71.4295 35.6538H71.0475C70.3903 36.6083 69.5574 37.4483 68.5488 38.1814C67.5402 38.9145 66.4246 39.472 65.202 39.8614C63.9794 40.2432 62.688 40.4418 61.3355 40.4418Z" fill="black"/>
<path d="M86.2686 39.7779V10.8208H93.6805L94.3376 14.9444H94.7197C95.4532 13.9517 96.2938 13.0964 97.2489 12.3633C98.204 11.6302 99.2815 11.0804 100.489 10.7139C101.696 10.3473 102.98 10.1641 104.332 10.1641C106.418 10.1641 108.183 10.5459 109.635 11.3172C111.079 12.0884 112.187 13.2415 112.959 14.7764C113.731 16.3113 114.113 18.2739 114.113 20.6564V39.7779H105.104V21.9241C105.104 21.1222 105.005 20.4273 104.806 19.8622C104.607 19.2972 104.325 18.8084 103.958 18.4037C103.591 17.999 103.133 17.7088 102.582 17.5255C102.032 17.3422 101.406 17.2506 100.718 17.2506C99.6559 17.2506 98.7236 17.495 97.9213 17.9913C97.1114 18.4877 96.4771 19.1444 96.0034 19.9692C95.5296 20.7939 95.2851 21.7561 95.2851 22.8557V39.7779H86.2686Z" fill="black"/>
<path d="M131.344 40.4422C128.891 40.4422 126.767 39.8924 124.971 38.7927C123.176 37.6931 121.808 36.0284 120.853 33.7909C119.898 31.5611 119.424 28.6975 119.424 25.2229C119.424 21.8171 119.905 19.0069 120.883 16.7924C121.854 14.5778 123.214 12.9207 124.971 11.8211C126.729 10.7215 128.8 10.1716 131.176 10.1716C132.307 10.1716 133.399 10.3015 134.446 10.5535C135.493 10.8055 136.425 11.2102 137.243 11.76C138.068 12.3098 138.771 12.9895 139.36 13.7913H139.688V0H148.689V39.7778H141.331L140.674 35.7687H140.292C139.306 37.3418 138.045 38.5178 136.502 39.2891C134.974 40.0527 133.254 40.4422 131.344 40.4422ZM134.148 33.4091C135.47 33.4091 136.54 33.1036 137.358 32.5004C138.183 31.8971 138.787 31.0342 139.169 29.9193C139.551 28.8044 139.742 27.4909 139.742 25.9865V24.6731C139.742 23.5735 139.635 22.5655 139.413 21.6491C139.191 20.7327 138.863 19.9462 138.427 19.2895C137.984 18.6327 137.411 18.1211 136.693 17.7545C135.982 17.388 135.126 17.2047 134.141 17.2047C132.788 17.2047 131.696 17.4796 130.87 18.0295C130.045 18.5793 129.449 19.3811 129.09 20.4425C128.723 21.504 128.54 22.8251 128.54 24.3982V26.3225C128.54 27.8575 128.723 29.1633 129.09 30.2247C129.457 31.2862 130.053 32.088 130.87 32.6149C131.703 33.1418 132.796 33.4091 134.148 33.4091Z" fill="black"/>
<path d="M169.565 40.4422C166.341 40.4422 163.59 39.8924 161.298 38.7928C159.013 37.6931 157.248 36.0208 156.025 33.7681C154.795 31.5153 154.184 28.6899 154.184 25.2764C154.184 21.863 154.795 19.0528 156.025 16.8153C157.248 14.5855 159.005 12.9132 161.298 11.8135C163.582 10.7139 166.341 10.1641 169.565 10.1641C172.82 10.1641 175.594 10.7139 177.886 11.8135C180.171 12.9132 181.929 14.5779 183.159 16.8153C184.389 19.0528 185 21.8706 185 25.2764C185 28.6822 184.389 31.5153 183.159 33.7681C181.929 36.0208 180.179 37.6931 177.886 38.7928C175.602 39.8924 172.828 40.4422 169.565 40.4422ZM169.565 33.8979C171.063 33.8979 172.286 33.6077 173.218 33.0197C174.15 32.4317 174.83 31.5841 175.25 30.4615C175.671 29.3466 175.884 27.9644 175.884 26.315V24.2837C175.884 22.6342 175.671 21.2444 175.25 20.1066C174.83 18.9688 174.15 18.1212 173.218 17.5484C172.286 16.9833 171.063 16.6932 169.565 16.6932C168.098 16.6932 166.898 16.9757 165.966 17.5484C165.034 18.1135 164.354 18.9688 163.934 20.1066C163.513 21.2444 163.3 22.6342 163.3 24.2837V26.315C163.3 27.9644 163.506 29.3466 163.934 30.4615C164.354 31.5764 165.034 32.4317 165.966 33.0197C166.906 33.6077 168.106 33.8979 169.565 33.8979Z" fill="black"/>
<path d="M0.274902 83.3428V54.3857H9.27618V83.3428H0.274902Z" fill="black"/>
<path d="M16.0923 83.3433V54.3862H23.5042L24.1613 58.5099H24.5434C25.277 57.5171 26.1175 56.6619 27.0726 55.9288C28.0278 55.1957 29.1052 54.6459 30.3125 54.2793C31.5198 53.9128 32.8035 53.7295 34.156 53.7295C36.242 53.7295 38.0071 54.1113 39.4589 54.8826C40.9031 55.6539 42.0111 56.8069 42.7828 58.3419C43.5546 59.8768 43.9367 61.8393 43.9367 64.2219V83.3433H34.9277V65.4819C34.9277 64.68 34.8284 63.9851 34.6297 63.42C34.4311 62.855 34.1483 62.3662 33.7816 61.9615C33.4148 61.5568 32.9563 61.2666 32.4062 61.0833C31.856 60.9 31.2294 60.8084 30.5417 60.8084C29.4796 60.8084 28.5474 61.0528 27.745 61.5491C26.9351 62.0455 26.3009 62.7022 25.8271 63.527C25.3534 64.3517 25.1088 65.3139 25.1088 66.4135V83.3357H16.0923V83.3433Z" fill="black"/>
<path d="M58.2026 83.3428L47.3369 54.3857H56.9495L60.6325 65.4279C60.8159 65.9777 61.0528 66.7719 61.3432 67.8181C61.6335 68.8643 61.9468 69.941 62.2754 71.0636C62.6039 72.1785 62.8943 73.217 63.1541 74.1716H63.4827C63.7425 73.2934 64.0252 72.3006 64.3308 71.201C64.6441 70.1014 64.9421 69.0323 65.2401 67.9861C65.5381 66.9399 65.7903 66.0923 66.0119 65.4279L69.6338 54.3857H78.5816L67.6547 83.3428H58.2026Z" fill="black"/>
<path d="M96.3089 84C93.0155 84 90.2112 83.4578 87.9113 82.3811C85.6113 81.3044 83.8385 79.6397 82.6159 77.4099C81.3857 75.18 80.7744 72.3164 80.7744 68.8419C80.7744 65.436 81.3781 62.6182 82.5854 60.3808C83.7927 58.1509 85.5349 56.4786 87.8043 55.3789C90.0737 54.2793 92.8016 53.7295 95.988 53.7295C99.1361 53.7295 101.803 54.2564 103.981 55.3179C106.158 56.3793 107.816 58.0059 108.947 60.2128C110.078 62.412 110.651 65.2451 110.651 68.7273V70.6517H89.898C89.898 72.1866 90.1195 73.4924 90.5551 74.5538C90.9906 75.6153 91.6707 76.4171 92.5876 76.9669C93.5046 77.5168 94.7272 77.7917 96.2707 77.7917C97.1876 77.7917 97.9899 77.6848 98.6853 77.4633C99.3806 77.2419 99.969 76.9211 100.443 76.5011C100.916 76.0811 101.283 75.5771 101.543 74.9891C101.795 74.4088 101.925 73.7444 101.925 73.0113H110.659C110.659 74.7677 110.338 76.3331 109.696 77.7077C109.054 79.0822 108.114 80.2353 106.869 81.1669C105.623 82.0986 104.11 82.8088 102.338 83.2822C100.55 83.7633 98.5477 84 96.3089 84ZM89.9438 65.6499H101.474C101.474 64.6953 101.36 63.8629 101.123 63.1451C100.886 62.4349 100.534 61.8393 100.076 61.3582C99.6175 60.8848 99.0673 60.5259 98.4255 60.2815C97.7836 60.0448 97.0424 59.9226 96.2019 59.9226C94.88 59.9226 93.7873 60.144 92.9086 60.5793C92.0298 61.0146 91.3498 61.656 90.876 62.5037C90.4023 63.3589 90.089 64.4051 89.9438 65.6499Z" fill="black"/>
<path d="M128.547 84C126.645 84 124.857 83.8015 123.191 83.3968C121.525 82.992 120.058 82.404 118.797 81.6404C117.529 80.8691 116.543 79.9222 115.832 78.7844C115.114 77.6542 114.763 76.3331 114.763 74.8288C114.763 74.6837 114.763 74.5462 114.763 74.4164C114.763 74.2866 114.778 74.172 114.816 74.0575H123.328C123.328 74.1339 123.328 74.2102 123.328 74.3019C123.328 74.3935 123.328 74.4775 123.328 74.5462C123.367 75.348 123.626 76.02 124.123 76.5546C124.62 77.0891 125.262 77.4709 126.072 77.7077C126.874 77.9444 127.753 78.0666 128.708 78.0666C129.403 78.0666 130.144 77.9902 130.931 77.8451C131.718 77.7 132.383 77.4404 132.933 77.0738C133.484 76.7073 133.759 76.1804 133.759 75.4855C133.759 74.7142 133.422 74.1339 132.742 73.7291C132.062 73.3244 131.168 72.9884 130.053 72.7135C128.937 72.4386 127.737 72.1713 126.454 71.9117C125.17 71.6215 123.879 71.2931 122.58 70.9266C121.281 70.56 120.089 70.056 119.011 69.4146C117.926 68.7731 117.063 67.9408 116.406 66.9175C115.748 65.8942 115.412 64.596 115.412 63.0153C115.412 61.3277 115.771 59.892 116.482 58.7008C117.2 57.5095 118.178 56.5473 119.424 55.8142C120.669 55.0811 122.106 54.5542 123.733 54.2259C125.361 53.8975 127.088 53.7295 128.922 53.7295C130.603 53.7295 132.207 53.8899 133.728 54.2259C135.249 54.5542 136.616 55.0582 137.847 55.7379C139.069 56.4175 140.032 57.2728 140.727 58.3189C141.423 59.3651 141.774 60.5793 141.774 61.9691C141.774 62.1524 141.767 62.3433 141.744 62.5495C141.728 62.748 141.713 62.8931 141.713 62.9619H133.254V62.5266C133.254 61.9004 133.056 61.3888 132.651 60.9917C132.246 60.5869 131.696 60.2662 131 60.0295C130.305 59.7928 129.533 59.6706 128.693 59.6706C128.142 59.6706 127.6 59.7164 127.073 59.808C126.538 59.8997 126.056 60.0295 125.613 60.1899C125.178 60.3579 124.818 60.5869 124.543 60.8771C124.268 61.1749 124.131 61.5339 124.131 61.9768C124.131 62.5266 124.368 62.9771 124.841 63.3208C125.315 63.672 125.965 63.9546 126.79 64.176C127.615 64.3975 128.517 64.6342 129.51 64.8862C130.863 65.184 132.292 65.4819 133.797 65.7949C135.295 66.108 136.716 66.5433 138.053 67.116C139.39 67.6888 140.468 68.5288 141.293 69.6437C142.118 70.7586 142.531 72.2935 142.531 74.2331C142.531 76.0658 142.164 77.616 141.43 78.876C140.697 80.136 139.696 81.144 138.412 81.9C137.128 82.6484 135.646 83.1906 133.965 83.5189C132.299 83.832 130.488 84 128.547 84Z" fill="black"/>
<path d="M158.088 83.9997C156.223 83.9997 154.642 83.7172 153.335 83.1445C152.036 82.5794 151.066 81.7241 150.424 80.5863C149.782 79.4561 149.461 78.0815 149.461 76.4626V60.9226H145.671V54.3859H149.736L151.6 45.9248H158.409V54.3859H164.063V60.9226H158.409V74.271C158.409 75.2943 158.607 76.0808 159.012 76.6306C159.417 77.1805 160.151 77.4554 161.205 77.4554H164.063V83.0605C163.589 83.2055 162.993 83.3659 162.275 83.5263C161.565 83.6943 160.839 83.8088 160.105 83.8852C159.387 83.9615 158.714 83.9997 158.088 83.9997Z" fill="black"/>
<path d="M169.618 78.7535C169.618 76.2182 171.674 74.1641 174.203 74.1641H174.593C177.122 74.1641 179.177 76.2182 179.177 78.7535C179.177 81.2888 177.122 83.343 174.593 83.343H174.203C171.674 83.343 169.618 81.2888 169.618 78.7535Z" fill="black"/>
<path d="M0 47.2613C0 44.7261 2.05547 42.6719 4.58469 42.6719H4.97439C7.50361 42.6719 9.55908 44.7261 9.55908 47.2613C9.55908 49.7966 7.50361 51.8508 4.97439 51.8508H4.58469C2.05547 51.8508 0 49.7966 0 47.2613Z" fill="black"/>
</svg>
