<svg width="101" height="45" viewBox="0 0 101 45" fill="none" xmlns="http://www.w3.org/2000/svg">
<path d="M0 21.2868V5.80881H4.05351L4.42884 8.01469H4.65403C5.02936 7.49999 5.44221 7.02204 5.96767 6.61763C6.49312 6.21322 7.05611 5.9191 7.65663 5.73528C8.25715 5.55146 8.8952 5.44116 9.60832 5.44116C10.6968 5.44116 11.5975 5.66175 12.3857 6.06616C13.1364 6.47057 13.7369 7.13234 14.1122 7.97793H14.3374C14.7127 7.46322 15.1256 6.98528 15.6511 6.58087C16.139 6.21322 16.702 5.9191 17.34 5.73528C17.9781 5.55146 18.6161 5.44116 19.2917 5.44116C20.3802 5.44116 21.3185 5.62499 22.0691 6.0294C22.8198 6.43381 23.4203 7.02204 23.8331 7.86763C24.246 8.71322 24.4337 9.70587 24.4337 10.9559V21.2868H19.5544V11.6912C19.5544 11.25 19.5169 10.8823 19.4043 10.5882C19.2917 10.2941 19.1416 10.0368 18.9914 9.85293C18.8038 9.63234 18.5786 9.48528 18.3159 9.41175C18.0156 9.30146 17.7153 9.22793 17.3776 9.22793C16.8521 9.22793 16.4017 9.37499 15.9888 9.63234C15.576 9.88969 15.2757 10.2573 15.0505 10.6985C14.8253 11.1397 14.7127 11.6544 14.7127 12.2426V21.2868H9.79598V11.6912C9.79598 11.25 9.75845 10.8823 9.64585 10.5882C9.53326 10.2941 9.38313 10.0368 9.233 9.85293C9.04533 9.63234 8.82014 9.48528 8.55741 9.41175C8.25715 9.30146 7.95689 9.22793 7.6191 9.22793C7.09364 9.22793 6.64325 9.37499 6.2304 9.63234C5.81754 9.88969 5.47975 10.2573 5.25455 10.6985C5.02936 11.1397 4.91676 11.6544 4.91676 12.2426V21.2868H0Z" fill="white"/>
<path d="M33.404 21.6544C31.7151 21.6544 30.4014 21.1765 29.4631 20.2574C28.5248 19.3383 28.0369 17.9412 28.0369 16.0294V5.80884H32.9536V15.3677C32.9536 15.7721 32.9912 16.1397 33.1038 16.4706C33.2539 16.7647 33.404 17.0221 33.5917 17.2427C33.7793 17.4633 34.0421 17.6103 34.3799 17.7206C34.6801 17.8309 35.0179 17.8677 35.3932 17.8677C35.9938 17.8677 36.4817 17.7206 36.9321 17.4633C37.3825 17.2059 37.7203 16.8383 37.983 16.3603C38.2457 15.8824 38.3583 15.4044 38.3583 14.853V5.80884H43.2751V21.3235H39.2216L38.9213 19.1177H38.6961C38.3208 19.6324 37.8704 20.0735 37.3449 20.478C36.7819 20.8456 36.1814 21.1397 35.5058 21.3235C34.8303 21.5441 34.1171 21.6544 33.404 21.6544Z" fill="white"/>
<path d="M47.0283 21.2868V5.80881H51.0818L51.4572 8.01469H51.6824C52.0952 7.49999 52.5456 7.02204 53.0711 6.61763C53.5965 6.21322 54.197 5.9191 54.8351 5.73528C55.5107 5.55146 56.1863 5.44116 56.9369 5.44116C58.0629 5.44116 59.0387 5.66175 59.8269 6.06616C60.6151 6.47057 61.2156 7.09557 61.6285 7.9044C62.0413 8.71322 62.2665 9.7794 62.2665 11.0662V21.2868H57.3498V11.7279C57.3498 11.2868 57.3122 10.9191 57.1996 10.625C57.087 10.3309 56.9369 10.0735 56.7492 9.85293C56.5616 9.63234 56.2989 9.48528 55.9986 9.37499C55.6983 9.26469 55.3605 9.22793 54.9852 9.22793C54.4222 9.22793 53.8968 9.37499 53.4464 9.63234C52.996 9.88969 52.6582 10.2573 52.3955 10.6985C52.1327 11.1397 52.0201 11.6544 52.0201 12.2426V21.2868H47.0283Z" fill="white"/>
<path d="M71.6872 21.6544C70.336 21.6544 69.1725 21.3603 68.1966 20.7721C67.2208 20.1838 66.4701 19.3015 65.9447 18.0882C65.4192 16.875 65.1565 15.3676 65.1565 13.4926C65.1565 11.6544 65.4192 10.1471 65.9447 8.97059C66.4701 7.79412 67.2208 6.91176 68.1966 6.32353C69.1725 5.73529 70.2984 5.44118 71.5746 5.44118C72.2126 5.44118 72.7756 5.51471 73.3761 5.66176C73.9391 5.80882 74.4646 6.02941 74.9149 6.32353C75.3653 6.61765 75.7407 6.98529 76.0785 7.42647H76.2661V0H81.1829V21.2868H77.1669L76.7916 19.1544H76.5664C76.0409 20 75.3278 20.625 74.5021 21.0294C73.6388 21.4338 72.7005 21.6544 71.6872 21.6544ZM73.1885 17.8676C73.9016 17.8676 74.5021 17.7206 74.9525 17.3897C75.4029 17.0588 75.7407 16.6176 75.9283 15.9926C76.116 15.3676 76.2661 14.7059 76.2661 13.8971V13.1985C76.2661 12.6103 76.1911 12.0588 76.0785 11.5809C75.9659 11.1029 75.7782 10.6618 75.553 10.3309C75.3278 9.96323 74.99 9.70588 74.6147 9.52206C74.2394 9.33823 73.7514 9.22794 73.226 9.22794C72.4753 9.22794 71.8748 9.375 71.4244 9.66912C70.974 9.96324 70.6362 10.4044 70.4486 10.9559C70.2609 11.5074 70.1483 12.2426 70.1483 13.0882V14.1176C70.1483 14.9265 70.2609 15.625 70.4486 16.2132C70.6362 16.7647 70.974 17.2059 71.4244 17.5C71.8748 17.7941 72.4753 17.8676 73.1885 17.8676Z" fill="white"/>
<path d="M92.5552 21.6544C90.7912 21.6544 89.2899 21.3603 88.0513 20.772C86.8128 20.1838 85.8369 19.3015 85.1613 18.0882C84.4857 16.875 84.1479 15.3676 84.1479 13.5294C84.1479 11.6912 84.4857 10.1838 85.1613 9.00734C85.8369 7.7941 86.7752 6.91175 88.0513 6.32352C89.2899 5.73528 90.7912 5.44116 92.5552 5.44116C94.3192 5.44116 95.8581 5.73528 97.0967 6.32352C98.3352 6.91175 99.3111 7.7941 99.9866 9.00734C100.662 10.2206 101 11.7279 101 13.5294C101 15.3676 100.662 16.875 99.9866 18.0882C99.3111 19.3015 98.3728 20.1838 97.0967 20.772C95.8205 21.3603 94.3568 21.6544 92.5552 21.6544ZM92.5552 18.1617C93.3809 18.1617 94.0565 18.0147 94.5444 17.6838C95.0699 17.3529 95.4077 16.9117 95.6704 16.3235C95.8956 15.7353 96.0082 15 96.0082 14.1176V13.0147C96.0082 12.1323 95.8956 11.397 95.6704 10.772C95.4452 10.147 95.0699 9.70587 94.5444 9.41175C94.019 9.11763 93.3809 8.97057 92.5552 8.97057C91.767 8.97057 91.0915 9.11763 90.6035 9.41175C90.0781 9.70587 89.7403 10.1838 89.4776 10.772C89.2524 11.397 89.1398 12.1323 89.1398 13.0147V14.1176C89.1398 15 89.2524 15.7353 89.4776 16.3235C89.7028 16.9117 90.0781 17.3897 90.6035 17.6838C91.129 17.9779 91.767 18.1617 92.5552 18.1617Z" fill="white"/>
<path d="M0 44.6691V29.1544H4.91676V44.6691H0Z" fill="white"/>
<path d="M8.63257 44.6691V29.1544H12.6861L13.0614 31.3602H13.2866C13.6619 30.8455 14.1123 30.3676 14.6378 30C15.1632 29.5955 15.7637 29.3014 16.4018 29.1176C17.0774 28.9338 17.753 28.8235 18.5036 28.8235C19.6296 28.8235 20.6054 29.0441 21.3936 29.4485C22.1818 29.8529 22.7823 30.4779 23.1952 31.2867C23.6456 32.0955 23.8708 33.1617 23.8708 34.4117V44.6323H18.954V35.0735C18.954 34.6323 18.9165 34.2647 18.8039 33.9705C18.6913 33.6764 18.5036 33.4191 18.316 33.2352C18.1283 33.0147 17.8656 32.8676 17.5653 32.7573C17.265 32.647 16.9273 32.6102 16.5519 32.6102C15.9514 32.6102 15.4635 32.7205 15.0131 33.0147C14.5627 33.272 14.2249 33.6029 13.9622 34.0441C13.6995 34.4852 13.5869 35 13.5869 35.5882V44.6323H8.63257V44.6691Z" fill="white"/>
<path d="M31.6774 44.6691L25.7473 29.1544H31.0019L33.0286 35.0735C33.1412 35.3677 33.2538 35.8088 33.4039 36.3603C33.5541 36.9118 33.7417 37.5 33.9294 38.0882C34.1171 38.6765 34.2672 39.2279 34.4173 39.7427H34.605C34.7551 39.2647 34.9052 38.75 35.0554 38.1618C35.2055 37.5735 35.3932 36.9853 35.5433 36.4338C35.6934 35.8824 35.8436 35.4044 35.9562 35.0735L37.9454 29.1544H42.8246L36.8569 44.6691H31.6774Z" fill="white"/>
<path d="M52.508 45C50.7064 45 49.1676 44.7059 47.929 44.1176C46.6904 43.5294 45.7146 42.647 45.039 41.4706C44.3634 40.2573 44.0256 38.75 44.0256 36.875C44.0256 35.0367 44.3634 33.5294 45.0015 32.3529C45.6771 31.1397 46.6154 30.2573 47.854 29.6691C49.0925 29.0809 50.5938 28.7867 52.3203 28.7867C54.0468 28.7867 55.5106 29.0809 56.6741 29.6323C57.8376 30.1838 58.7759 31.0662 59.3764 32.2426C60.0145 33.4191 60.3147 34.9265 60.3147 36.8015V37.8309H48.9799C48.9799 38.6397 49.0925 39.3382 49.3553 39.9264C49.5804 40.4779 49.9558 40.9191 50.4812 41.2132C50.9691 41.5073 51.6447 41.6544 52.508 41.6544C52.9959 41.6544 53.4463 41.5809 53.8216 41.4706C54.1969 41.3603 54.5347 41.1765 54.7975 40.9559C55.0602 40.7353 55.2479 40.4779 55.398 40.147C55.5481 39.8162 55.6232 39.4853 55.6232 39.0809H60.3898C60.3898 40.0367 60.2021 40.8456 59.8644 41.5809C59.5266 42.3162 59.0011 42.9412 58.3255 43.4191C57.6499 43.9338 56.8242 44.3014 55.8484 44.5588C54.835 44.8897 53.7466 45 52.508 45ZM49.0175 35.1838H55.3229C55.3229 34.6691 55.2479 34.2279 55.1353 33.8603C55.0227 33.4926 54.835 33.1617 54.5723 32.9044C54.3095 32.647 54.0093 32.4632 53.6715 32.3162C53.3337 32.2059 52.9208 32.1323 52.4704 32.1323C51.7573 32.1323 51.1568 32.2426 50.6689 32.5C50.181 32.7206 49.8056 33.0882 49.5429 33.5294C49.2802 33.9706 49.0925 34.522 49.0175 35.1838Z" fill="white"/>
<path d="M70.1483 45C69.0974 45 68.1215 44.8897 67.2207 44.6691C66.32 44.4485 65.4943 44.1544 64.8187 43.7132C64.1431 43.3088 63.5801 42.7941 63.2048 42.1691C62.8294 41.5441 62.6042 40.8456 62.6042 40.0367C62.6042 39.9632 62.6042 39.8897 62.6042 39.8162C62.6042 39.7426 62.6042 39.6691 62.6418 39.6323H67.2958C67.2958 39.6691 67.2958 39.7059 67.2958 39.7794C67.2958 39.8529 67.2958 39.8897 67.2958 39.9264C67.2958 40.3676 67.4459 40.6985 67.7462 40.9926C68.0089 41.2867 68.3843 41.4706 68.7971 41.6176C69.2475 41.7279 69.7354 41.8014 70.2233 41.8014C70.5987 41.8014 71.0115 41.7647 71.4244 41.6912C71.8372 41.6176 72.2126 41.4706 72.5128 41.2867C72.8131 41.1029 72.9632 40.8088 72.9632 40.4412C72.9632 40.0367 72.7756 39.7059 72.4002 39.4853C72.0249 39.2647 71.537 39.0809 70.9365 38.9338C70.3359 38.7867 69.6604 38.6397 68.9848 38.4926C68.2717 38.3456 67.5585 38.1617 66.883 37.9779C66.1698 37.7941 65.5318 37.5 64.9313 37.1691C64.3307 36.8382 63.8804 36.397 63.505 35.8456C63.1297 35.2941 62.9796 34.5956 62.9796 33.75C62.9796 32.8309 63.1672 32.0956 63.5801 31.4338C63.9554 30.8088 64.5184 30.2941 65.194 29.8897C65.8696 29.4853 66.6578 29.2279 67.5585 29.0441C68.4593 28.8603 69.3976 28.7867 70.411 28.7867C71.3493 28.7867 72.2126 28.8603 73.0383 29.0441C73.864 29.2279 74.6146 29.4853 75.2902 29.8529C75.9658 30.2206 76.4913 30.6617 76.8666 31.25C77.2419 31.8382 77.4296 32.4632 77.4296 33.1985C77.4296 33.3088 77.4296 33.3823 77.4296 33.4926C77.4296 33.6029 77.4296 33.6764 77.4296 33.7132H72.8131V33.5294C72.8131 33.1985 72.7005 32.9044 72.4753 32.7206C72.2501 32.5367 71.9498 32.3162 71.5745 32.2059C71.1992 32.0956 70.6737 31.9853 70.2233 31.9853C69.9231 31.9853 69.6228 32.022 69.3226 32.0588C69.0223 32.0956 68.7596 32.1691 68.5344 32.2794C68.3092 32.3529 68.084 32.5 67.9339 32.647C67.7837 32.7941 67.7087 33.0147 67.7087 33.2353C67.7087 33.5294 67.8213 33.7867 68.084 33.9706C68.3467 34.1544 68.6845 34.3014 69.1349 34.4117C69.5853 34.522 70.0732 34.6691 70.6362 34.7794C71.3869 34.9264 72.175 35.1103 72.9632 35.2573C73.7889 35.4412 74.5396 35.6617 75.2902 35.9559C76.0033 36.25 76.6039 36.7279 77.0543 37.3162C77.5047 37.9044 77.7298 38.75 77.7298 39.7794C77.7298 40.772 77.5422 41.5809 77.1293 42.2794C76.7165 42.9412 76.191 43.4926 75.4779 43.897C74.7648 44.3014 73.9766 44.5956 73.0383 44.7794C72.1 44.9632 71.1992 45 70.1483 45Z" fill="white"/>
<path d="M86.2873 45C85.274 45 84.4107 44.8529 83.6976 44.5588C82.9845 44.2647 82.459 43.7867 82.1212 43.1985C81.7834 42.5735 81.5958 41.8382 81.5958 40.9926V32.647H79.5315V29.1544H81.7459L82.7593 24.6323H86.475V29.1544H89.5527V32.647H86.475V39.7794C86.475 40.3309 86.5876 40.7353 86.8128 41.0294C87.038 41.3235 87.4509 41.4706 88.0138 41.4706H89.5902V44.4853C89.3275 44.5588 88.9897 44.6323 88.6144 44.7426C88.239 44.8162 87.8262 44.8897 87.4133 44.9264C87.0005 45 86.6251 45 86.2873 45Z" fill="white"/>
<path d="M2.47715 27.6471C3.84524 27.6471 4.95429 26.5608 4.95429 25.2207C4.95429 23.8806 3.84524 22.7942 2.47715 22.7942C1.10906 22.7942 0 23.8806 0 25.2207C0 26.5608 1.10906 27.6471 2.47715 27.6471Z" fill="white"/>
<path d="M95.2201 44.6324C96.5881 44.6324 97.6972 43.546 97.6972 42.2059C97.6972 40.8658 96.5881 39.7794 95.2201 39.7794C93.852 39.7794 92.7429 40.8658 92.7429 42.2059C92.7429 43.546 93.852 44.6324 95.2201 44.6324Z" fill="white"/>
</svg>
