<?xml version="1.0" encoding="UTF-8"?>
<!DOCTYPE svg PUBLIC "-//W3C//DTD SVG 1.1//EN" "http://www.w3.org/Graphics/SVG/1.1/DTD/svg11.dtd">
<svg xmlns="http://www.w3.org/2000/svg" version="1.1" width="275px" height="248px" style="shape-rendering:geometricPrecision; text-rendering:geometricPrecision; image-rendering:optimizeQuality; fill-rule:evenodd; clip-rule:evenodd" xmlns:xlink="http://www.w3.org/1999/xlink">
<g><path style="opacity:0.944" fill="#00cbfe" d="M 127.5,-0.5 C 134.5,-0.5 141.5,-0.5 148.5,-0.5C 170.54,5.87716 182.207,20.5438 183.5,43.5C 183.061,51.696 180.894,59.3627 177,66.5C 165.064,86.6114 152.897,106.611 140.5,126.5C 138.926,127.631 137.259,127.798 135.5,127C 122.031,105.825 108.864,84.325 96,62.5C 86.0565,31.0145 96.5565,10.0145 127.5,-0.5 Z M 130.5,7.5 C 155.995,6.17186 170.995,18.0052 175.5,43C 174.758,50.8149 172.258,57.9815 168,64.5C 158.205,79.9458 148.871,95.6124 140,111.5C 139.311,112.357 138.478,113.023 137.5,113.5C 124.74,93.5614 112.573,73.228 101,52.5C 97.9233,35.7255 103.423,22.5588 117.5,13C 121.741,10.6512 126.075,8.81787 130.5,7.5 Z M 134.5,30.5 C 147.007,30.8358 152.507,37.1692 151,49.5C 149.474,53.6926 146.641,56.5259 142.5,58C 134.025,60.1789 127.858,57.3456 124,49.5C 121.794,39.9057 125.294,33.5724 134.5,30.5 Z"/></g>
<g><path style="opacity:0.927" fill="#00cafe" d="M 136.5,21.5 C 151.293,22.4605 159.293,30.2938 160.5,45C 156.092,65.4806 144.092,71.814 124.5,64C 110.976,50.6606 111.309,37.6606 125.5,25C 129.161,23.4075 132.828,22.2408 136.5,21.5 Z M 134.5,30.5 C 125.294,33.5724 121.794,39.9057 124,49.5C 127.858,57.3456 134.025,60.1789 142.5,58C 146.641,56.5259 149.474,53.6926 151,49.5C 152.507,37.1692 147.007,30.8358 134.5,30.5 Z"/></g>
<g><path style="opacity:0.946" fill="#fdfdfd" d="M 274.5,226.5 C 274.5,233.5 274.5,240.5 274.5,247.5C 272.5,247.5 270.5,247.5 268.5,247.5C 250.406,237.847 231.906,228.847 213,220.5C 188.701,229.411 164.534,238.411 140.5,247.5C 138.5,247.5 136.5,247.5 134.5,247.5C 110.342,238.333 86.009,229.333 61.5,220.5C 42.9522,229.275 24.6189,238.275 6.5,247.5C 4.5,247.5 2.5,247.5 0.5,247.5C 0.5,246.833 0.166667,246.5 -0.5,246.5C -0.5,241.833 -0.5,237.167 -0.5,232.5C 4.27281,185.969 9.10614,139.303 14,92.5C 32.7787,82.2777 51.7787,72.6111 71,63.5C 77.3133,65.6053 83.4799,68.1053 89.5,71C 92.6712,75.1429 91.6712,77.6429 86.5,78.5C 82.8109,77.6593 79.3109,76.3259 76,74.5C 75.6667,74.8333 75.3333,75.1667 75,75.5C 71.7185,121.166 68.7185,166.833 66,212.5C 87.9946,220.998 110.161,228.998 132.5,236.5C 132.333,204.498 132.5,172.498 133,140.5C 134.845,136.205 137.512,135.538 141,138.5C 141.333,171.167 141.667,203.833 142,236.5C 164.29,229.226 186.624,221.226 209,212.5C 206.776,166.801 203.776,121.134 200,75.5C 199.667,75.1667 199.333,74.8333 199,74.5C 194.885,77.3168 190.385,78.4834 185.5,78C 183.269,75.8031 183.269,73.4698 185.5,71C 191.799,68.4005 198.133,65.9005 204.5,63.5C 223.255,72.7113 241.922,82.2113 260.5,92C 261.126,92.7504 261.626,93.5838 262,94.5C 266.117,138.659 270.283,182.659 274.5,226.5 Z M 62.5,76.5 C 63.4959,76.4142 64.3292,76.7476 65,77.5C 65.1667,79.8333 65.3333,82.1667 65.5,84.5C 62.1745,127.142 59.3412,169.809 57,212.5C 41.3333,220.167 25.6667,227.833 10,235.5C 9.13008,234.892 8.63008,234.059 8.5,233C 12.5834,188.501 16.75,144.001 21,99.5C 34.815,91.6786 48.6483,84.012 62.5,76.5 Z M 210.5,76.5 C 225.592,83.1022 240.092,90.7689 254,99.5C 257.628,143.226 261.795,186.892 266.5,230.5C 266.333,231.833 266.167,233.167 266,234.5C 265.586,234.957 265.086,235.291 264.5,235.5C 248.852,228.118 233.352,220.452 218,212.5C 214.982,168.511 212.149,124.511 209.5,80.5C 209.623,79.0755 209.957,77.7421 210.5,76.5 Z"/></g>
</svg>
