<svg width="54" height="53" viewBox="0 0 54 53" fill="none" xmlns="http://www.w3.org/2000/svg">
<path d="M26.2563 14.8824V8.1279H28.4928V14.8824H26.2563ZM26.2563 42.6606V35.5483H28.4928V42.6606H26.2563ZM27.1956 37.427C25.5555 37.427 24.1092 37.263 22.8567 36.935C21.6042 36.5771 20.5605 36.0851 19.7255 35.4588C18.8905 34.8028 18.2493 34.0423 17.802 33.1775C17.3845 32.2829 17.1758 31.2988 17.1758 30.2252C17.1758 30.0761 17.1758 29.9419 17.1758 29.8227C17.2056 29.7034 17.2205 29.599 17.2205 29.5095H21.8278C21.8278 29.599 21.8278 29.6885 21.8278 29.7779C21.8278 29.8376 21.8278 29.9121 21.8278 30.0016C21.8278 30.926 22.0813 31.6716 22.5883 32.2382C23.0952 32.7749 23.7662 33.1626 24.6012 33.4012C25.466 33.6099 26.4054 33.7143 27.4193 33.7143C28.3139 33.7143 29.134 33.6099 29.8795 33.4012C30.6549 33.1924 31.2811 32.8644 31.7582 32.4171C32.2652 31.94 32.5187 31.3584 32.5187 30.6726C32.5187 29.7779 32.2055 29.092 31.5793 28.6149C30.9531 28.1378 30.133 27.765 29.1191 27.4966C28.1052 27.1984 27.0465 26.9002 25.9431 26.602C24.959 26.3336 23.975 26.0354 22.9909 25.7074C22.0366 25.3793 21.1718 24.9768 20.3964 24.4996C19.6211 23.9927 18.9949 23.3515 18.5177 22.5762C18.0406 21.771 17.802 20.7869 17.802 19.6239C17.802 18.5205 18.0406 17.5513 18.5177 16.7163C18.9949 15.8814 19.6509 15.1806 20.4859 14.614C21.3507 14.0474 22.3646 13.615 23.5276 13.3168C24.7205 13.0185 26.0177 12.8694 27.4193 12.8694C28.8805 12.8694 30.1777 13.0335 31.3109 13.3615C32.4441 13.6597 33.3984 14.107 34.1737 14.7034C34.9789 15.27 35.5902 15.941 36.0077 16.7163C36.4252 17.4917 36.634 18.3267 36.634 19.2213C36.634 19.4301 36.6191 19.6239 36.5892 19.8028C36.5892 19.9817 36.5892 20.101 36.5892 20.1607H32.0266V19.7581C32.0266 19.1617 31.8626 18.6249 31.5346 18.1478C31.2065 17.6706 30.6847 17.2829 29.969 16.9847C29.2831 16.6865 28.3586 16.5374 27.1956 16.5374C26.4203 16.5374 25.7344 16.612 25.138 16.7611C24.5416 16.8804 24.0495 17.0742 23.6618 17.3426C23.2742 17.5812 22.976 17.8645 22.7672 18.1925C22.5883 18.4907 22.4988 18.8485 22.4988 19.266C22.4988 19.9519 22.7374 20.4887 23.2145 20.8764C23.7215 21.2342 24.3775 21.5473 25.1827 21.8157C25.9879 22.0543 26.8527 22.3227 27.7771 22.6209C28.8507 22.9191 29.9392 23.2322 31.0425 23.5603C32.1459 23.8585 33.1598 24.2461 34.0843 24.7233C35.0385 25.2004 35.799 25.8714 36.3656 26.7362C36.962 27.5712 37.2602 28.6746 37.2602 30.0463C37.2602 31.3584 37.0067 32.4916 36.4998 33.4459C35.9928 34.3704 35.2771 35.1308 34.3527 35.7272C33.458 36.3236 32.3994 36.756 31.1767 37.0244C29.9541 37.2928 28.627 37.427 27.1956 37.427Z" fill="#84D682"/>
<path d="M52.2466 26.3504C52.2466 40.086 41.0606 51.2309 27.2496 51.2309C13.4387 51.2309 2.25264 40.086 2.25264 26.3504C2.25264 12.6148 13.4387 1.46993 27.2496 1.46993C41.0606 1.46993 52.2466 12.6148 52.2466 26.3504Z" stroke="#79FF6D" stroke-width="2.63126"/>
</svg>
