<svg width="55" height="55" viewBox="0 0 55 55" fill="none" xmlns="http://www.w3.org/2000/svg">
<g clip-path="url(#clip0)">
<path d="M53.9265 25.3512H30.7266C30.1336 25.3512 29.6523 24.8699 29.6523 24.277V17.8413C29.6523 17.2484 30.1336 16.7671 30.7266 16.7671C31.3195 16.7671 31.8008 17.2484 31.8008 17.8413V23.2028H52.6901C50.9133 12.452 42.5505 4.08918 31.8008 2.31135V10.4303C31.8008 11.0233 31.3195 11.5045 30.7266 11.5045C30.1336 11.5045 29.6523 11.0233 29.6523 10.4303V1.07492C29.6523 0.767698 29.7834 0.476584 30.0133 0.272483C30.2421 0.0683812 30.5472 -0.0272243 30.8522 0.00822491C36.9635 0.727952 42.7353 3.52951 47.1041 7.89944C51.473 12.2694 54.2756 18.0401 54.9943 24.1513C55.0297 24.4564 54.9341 24.7615 54.73 24.9903C54.5259 25.2201 54.2337 25.3512 53.9265 25.3512Z" fill="#1D63DD"/>
<path d="M30.7266 15.1891C30.1336 15.1891 29.6523 14.7078 29.6523 14.1148V14.0869C29.6523 13.4939 30.1336 13.0127 30.7266 13.0127C31.3195 13.0127 31.8008 13.4939 31.8008 14.0869V14.1148C31.8008 14.7089 31.3195 15.1891 30.7266 15.1891Z" fill="#1D63DD"/>
<path d="M25.2829 49.7002C25.2743 49.7002 25.2657 49.7002 25.256 49.7002C20.4532 49.5842 15.9082 47.9471 12.1119 44.9661C11.6457 44.5998 11.5641 43.9242 11.9304 43.4579C12.2967 42.9907 12.9713 42.9101 13.4386 43.2764C16.8675 45.9684 20.9721 47.4476 25.3076 47.5518C25.9006 47.5658 26.37 48.0588 26.356 48.6518C26.3421 49.2362 25.863 49.7002 25.2829 49.7002Z" fill="#1D63DD"/>
<path d="M28.3271 49.5705C27.7911 49.5705 27.327 49.1698 27.2615 48.6231C27.1917 48.0344 27.6117 47.4995 28.2003 47.4297L28.2229 47.4275C28.8115 47.3577 29.3464 47.7777 29.4163 48.3663C29.4861 48.955 29.0661 49.4899 28.4774 49.5598L28.4549 49.5619C28.4119 49.5673 28.369 49.5705 28.3271 49.5705Z" fill="#1D63DD"/>
<path d="M50.918 27.9297C50.8986 27.9297 50.8804 27.9308 50.861 27.9308H27.0703V4.08203C27.0703 3.48906 26.5891 3.00781 25.9961 3.00781C19.0523 3.00781 12.5243 5.71162 7.61406 10.6219C2.70381 15.5321 0 22.0602 0 29.0039C0 35.9477 2.70381 42.4757 7.61406 47.3859C12.5243 52.2962 19.0523 55 25.9961 55C32.9398 55 39.4679 52.2962 44.3781 47.3859C49.2884 42.4757 51.9922 35.9477 51.9922 29.0039C51.9922 28.4109 51.5109 27.9297 50.918 27.9297ZM25.9961 52.8516C12.8466 52.8516 2.14844 42.1534 2.14844 29.0039C2.14844 16.2143 12.2697 5.74492 24.9219 5.17988V29.005C24.9219 29.3627 25.097 29.6785 25.3666 29.874V29.8751L44.6521 43.8421C40.2789 49.3281 33.5414 52.8516 25.9961 52.8516ZM45.9143 42.104L29.3111 30.0792H49.8201C49.6225 34.5061 48.2109 38.6214 45.9143 42.104Z" fill="#1D63DD"/>
</g>
<defs>
<clipPath id="clip0">
<rect width="55" height="55" fill="white"/>
</clipPath>
</defs>
</svg>
