<svg width="73" height="73" viewBox="0 0 73 73" fill="none" xmlns="http://www.w3.org/2000/svg">
<path d="M31.3156 41.9079L28.7178 53.5035L19.7199 44.5056L31.3156 41.9079Z" fill="#50322E"/>
<path fill-rule="evenodd" clip-rule="evenodd" d="M62.1145 11.1092L58.897 21.9577C57.3136 21.4378 55.6716 20.4453 54.2258 18.9995L54.225 18.9987L62.1145 11.1092ZM45.7201 15.9697L50.3072 14.6092C50.8777 16.3649 51.9635 18.1509 53.517 19.7049L26.5847 46.6372L21.6674 41.7199L23.5019 36.7636C27.2197 26.7199 35.4524 19.0149 45.7201 15.9697ZM31.5034 51.556L36.4582 49.7219C46.5019 46.0042 54.2069 37.7715 57.2521 27.5038L58.6126 22.9169C56.8574 22.3459 55.072 21.26 53.5186 19.7066L53.5179 19.7058L26.5856 46.6381L31.5034 51.556ZM62.1146 11.1073L54.2241 18.9978C52.7781 17.5513 51.7858 15.9087 51.2663 14.3247L62.1146 11.1073Z" fill="url(#paint0_angular_2166_3646)"/>
<path d="M41.427 53.0865L41.427 42.1875L32.2193 51.3952L32.2193 62.2942L41.427 53.0865Z" fill="#C4BE89"/>
<path d="M20.1381 31.7988L31.0371 31.7988L21.8294 41.0066L10.9304 41.0066L20.1381 31.7988Z" fill="#C4BE89"/>
<circle cx="46.6221" cy="27.1114" r="4.82134" transform="rotate(45 46.6221 27.1114)" fill="url(#paint1_linear_2166_3646)"/>
<path fill-rule="evenodd" clip-rule="evenodd" d="M15.2963 59.4829C16.3603 56.6233 17.8494 56.2525 19.2887 56.5723C16.7647 58.3926 16.7552 61.0784 17.1857 61.7594C17.1462 60.8845 17.6065 59.078 19.763 58.851C21.7094 58.6461 23.0452 57.8772 23.7635 56.5573L23.7638 56.5571C24.7214 54.8191 24.6275 53.0316 22.9441 51.3482C21.2607 49.6648 18.9756 49.9009 17.1908 51.0053L17.172 51.0243C14.5192 52.7167 13.8877 56.7786 13.7737 59.6692C13.6892 61.8132 12.57 62.2744 11.7388 62.5492C12.5581 62.6982 14.6753 62.4619 15.2963 59.4829Z" fill="url(#paint2_linear_2166_3646)"/>
<defs>
<radialGradient id="paint0_angular_2166_3646" cx="0" cy="0" r="1" gradientUnits="userSpaceOnUse" gradientTransform="translate(39.0015 34.2213) rotate(135) scale(32.6875 12.2699)">
<stop stop-color="#EA765C"/>
<stop offset="1" stop-color="#6C1C26"/>
</radialGradient>
<linearGradient id="paint1_linear_2166_3646" x1="46.6221" y1="22.29" x2="46.6221" y2="31.9327" gradientUnits="userSpaceOnUse">
<stop stop-color="#482323"/>
<stop offset="1" stop-color="#161010" stop-opacity="0"/>
</linearGradient>
<linearGradient id="paint2_linear_2166_3646" x1="11.741" y1="62.5513" x2="22.9441" y2="51.3481" gradientUnits="userSpaceOnUse">
<stop offset="0.527938" stop-color="#FFE600"/>
<stop offset="1" stop-color="#FF3D00"/>
</linearGradient>
</defs>
</svg>
