<svg width="33" height="32" viewBox="0 0 33 32" fill="none" xmlns="http://www.w3.org/2000/svg">
<path fill-rule="evenodd" clip-rule="evenodd" d="M5.37052 1.37717L7.72605 5.9048C5.65528 7.38243 4.05404 9.32001 3.14003 11.5325L0.80849 11.9875C0.338899 12.0791 0 12.4905 0 12.9689V18.4901C0 18.9511 0.315161 19.3524 0.763043 19.4616L3.10839 20.0336C3.90423 22.0001 5.24185 23.7524 6.96969 25.1616L7.30804 30.116C7.34387 30.6406 7.77988 31.0479 8.30572 31.0479H10.6127C11.1321 31.0479 11.565 30.6504 11.6091 30.133L11.8061 27.8252C13.5678 28.4306 15.4931 28.764 17.5101 28.764C19.4991 28.764 21.399 28.4398 23.1407 27.8502L23.2955 30.116C23.3313 30.6406 23.7673 31.0479 24.2932 31.0479H26.6002C27.1195 31.0479 27.5524 30.6504 27.5966 30.133L28.0187 25.1873C30.9253 22.8304 32.7362 19.5058 32.7362 15.8218C32.7362 8.67397 25.9192 2.87954 17.5101 2.87954C15.8468 2.87954 14.2459 3.10622 12.7476 3.52522C11.9425 1.40386 8.79623 0.393275 6.29641 0.0114094C5.53388 -0.105073 5.01451 0.692867 5.37052 1.37717ZM23.1382 5.7344C23.2433 5.47905 23.5355 5.35729 23.7909 5.46243C24.9129 5.92442 26.5839 6.84809 27.9835 8.13573C29.3761 9.4169 30.5716 11.1268 30.5716 13.1572C30.5716 13.4333 30.3478 13.6572 30.0716 13.6572C29.7955 13.6572 29.5716 13.4333 29.5716 13.1572C29.5716 11.5333 28.6101 10.0711 27.3064 8.87167C26.0097 7.67872 24.4452 6.81331 23.4101 6.38711C23.1548 6.28197 23.033 5.98974 23.1382 5.7344ZM7.99373 12.0152C8.62441 12.0152 9.13569 11.504 9.13569 10.8733C9.13569 10.2426 8.62441 9.73131 7.99373 9.73131C7.36304 9.73131 6.85177 10.2426 6.85177 10.8733C6.85177 11.504 7.36304 12.0152 7.99373 12.0152Z" fill="url(#paint0_linear_2131_935)"/>
<defs>
<linearGradient id="paint0_linear_2131_935" x1="7.91609" y1="0" x2="7.91609" y2="31.0479" gradientUnits="userSpaceOnUse">
<stop stop-color="#00FFD1"/>
<stop offset="1" stop-color="#9A97BF" stop-opacity="0.2"/>
</linearGradient>
</defs>
</svg>
