<svg width="95" height="95" viewBox="0 0 95 95" fill="none" xmlns="http://www.w3.org/2000/svg">
<g clip-path="url(#clip0)">
<path d="M24.4299 29.8963C23.6753 29.8963 22.9826 29.4238 22.7055 28.7236C22.421 28.0062 22.6239 27.1551 23.2053 26.648C23.7965 26.1309 24.6748 26.0443 25.3551 26.4377C26.0355 26.8311 26.4041 27.6351 26.2482 28.407C26.0775 29.2605 25.3032 29.8963 24.4299 29.8963Z" fill="#1D63DD"/>
<path d="M58.3404 67.9939C57.5636 67.9939 56.8561 67.4941 56.5938 66.7668C56.339 66.0592 56.5468 65.2379 57.1158 64.7431C57.7195 64.2186 58.6051 64.1419 59.2929 64.5476C59.9337 64.9286 60.2899 65.6906 60.1712 66.4278C60.0277 67.3185 59.241 67.9939 58.3404 67.9939Z" fill="#1D63DD"/>
<path d="M94.7052 13.7927C94.4529 13.1124 93.827 12.6423 93.1046 12.5879L82.9885 11.8309L82.2315 1.71734C82.1796 0.994947 81.707 0.369036 81.0267 0.116692C80.3464 -0.135652 79.5819 0.0325773 79.0698 0.544687L70.9849 8.62958C69.6465 9.96799 68.8697 11.7492 68.8004 13.6418C68.7979 13.6765 68.7979 13.7086 68.8004 13.7433L68.9117 19.938C61.6581 14.0723 52.4327 10.5568 42.4033 10.5568C19.1208 10.5568 0.177734 29.4974 0.177734 52.7798C0.177734 76.0598 19.1184 95.0004 42.4008 95.0004C65.6832 95.0004 84.6263 76.0598 84.6263 52.7774C84.6263 42.5847 80.9945 33.2257 74.9605 25.9226L81.0836 26.0215C81.0935 26.0215 81.1034 26.0215 81.1133 26.0215C81.1355 26.0215 81.1578 26.0215 81.1801 26.0215C83.0727 25.9522 84.8514 25.1779 86.1923 23.837L94.2772 15.7521C94.7918 15.2375 94.96 14.4731 94.7052 13.7927ZM73.6098 11.252L78.8348 6.02698L79.3444 12.8526L72.6152 19.5917L72.5113 13.7284C72.5559 12.7957 72.9467 11.9175 73.6098 11.252ZM42.4008 91.2895C21.1643 91.2895 3.8862 74.0138 3.8862 52.7774C3.8862 31.5409 21.1643 14.2653 42.4008 14.2653C52.2669 14.2653 61.2771 17.9935 68.0978 24.1141L63.8005 28.4114C58.0857 23.3843 50.5921 20.3339 42.4008 20.3339C38.628 20.3339 34.927 20.9796 31.404 22.2512C30.4417 22.6 29.9419 23.6638 30.2908 24.6262C30.6396 25.591 31.7009 26.0908 32.6658 25.742C35.7829 24.6163 39.0585 24.0448 42.4008 24.0448C49.5678 24.0448 56.1312 26.6821 61.1707 31.0387L56.866 35.3434C52.9374 32.0778 47.893 30.1134 42.4008 30.1134C29.9048 30.1134 19.7368 40.2789 19.7368 52.7749C19.7368 65.2709 29.9023 75.4364 42.4008 75.4364C45.9707 75.4364 49.5332 74.5804 52.6974 72.9599C53.6103 72.4923 53.969 71.3741 53.5039 70.4637C53.0363 69.5508 51.9181 69.1921 51.0077 69.6572C48.3259 71.0302 45.4314 71.7254 42.4033 71.7254C31.9533 71.7254 23.4503 63.2249 23.4503 52.7749C23.4503 42.3249 31.9508 33.8244 42.4033 33.8244C46.8737 33.8244 50.9879 35.383 54.2313 37.9806L49.9018 42.3101C47.7891 40.791 45.1964 39.8955 42.4008 39.8955C35.298 39.8955 29.5189 45.6722 29.5189 52.7774C29.5189 59.8826 35.298 65.6593 42.4008 65.6593C49.5035 65.6593 55.2827 59.8801 55.2827 52.7774C55.2827 49.8061 54.2708 47.0675 52.5737 44.8854L56.8883 40.5733C59.6715 43.8736 61.3538 48.1313 61.3538 52.7774C61.3538 54.8134 61.0322 56.8198 60.3939 58.7371C60.0698 59.7094 60.5967 60.7608 61.569 61.0824C62.5413 61.4041 63.5927 60.8796 63.9143 59.9073C64.6763 57.6115 65.0622 55.2142 65.0622 52.7774C65.0622 47.1095 62.9693 41.9192 59.5181 37.941L63.8154 33.6438C68.3625 38.7278 71.1309 45.4347 71.1309 52.7774C71.1309 68.6206 58.2415 81.5075 42.3983 81.5075C26.5551 81.5075 13.6658 68.6181 13.6658 52.7774C13.6658 46.6568 15.5732 40.8084 19.1802 35.8703C19.7863 35.0416 19.6057 33.8813 18.777 33.2776C17.9507 32.674 16.7879 32.8546 16.1842 33.6809C12.1096 39.2597 9.95482 45.8627 9.95482 52.7774C9.95482 70.6666 24.5091 85.2184 42.3983 85.2184C60.2875 85.2184 74.8418 70.6666 74.8418 52.7774C74.8418 44.4129 71.6603 36.7758 66.4427 31.0164L70.7375 26.7216C77.0535 33.5844 80.9129 42.7356 80.9129 52.7749C80.9154 74.0138 63.6372 91.2895 42.4008 91.2895ZM51.5717 52.7774C51.5717 57.8341 47.4576 61.9483 42.4008 61.9483C37.344 61.9483 33.2298 57.8341 33.2298 52.7774C33.2298 47.7206 37.344 43.6064 42.4008 43.6064C44.1697 43.6064 45.8247 44.1111 47.2275 44.9819L41.3098 50.8996C40.5849 51.6245 40.5849 52.7996 41.3098 53.522C41.6734 53.8857 42.146 54.0663 42.621 54.0663C43.096 54.0663 43.571 53.8857 43.9346 53.522L49.9241 47.535C50.9632 49.0244 51.5717 50.8304 51.5717 52.7774ZM83.5699 21.2121C82.9069 21.8752 82.0262 22.2636 81.091 22.3081L75.2475 22.2141L78.8125 18.6491C78.8521 18.6095 78.8892 18.5675 78.9238 18.5254L81.9693 15.475L88.7949 15.9847L83.5699 21.2121Z" fill="#1D63DD"/>
</g>
<defs>
<clipPath id="clip0">
<rect width="95" height="95" fill="white"/>
</clipPath>
</defs>
</svg>
