<svg width="34" height="34" viewBox="0 0 34 34" fill="none" xmlns="http://www.w3.org/2000/svg">
<path d="M34.0002 28.3339C34.0002 31.459 31.4587 34.0005 28.3335 34.0005H11.1267L14.0237 31.1672H28.3349C29.8975 31.1672 31.1682 29.8965 31.1682 28.3339C31.1682 26.7713 29.8975 25.5005 28.3349 25.5005H21.2516C18.1264 25.5005 15.5849 22.959 15.5849 19.8339C15.5849 17.104 17.5257 14.8203 20.0998 14.2862L22.8751 17.0005H21.2516C19.689 17.0005 18.4182 18.2713 18.4182 19.8339C18.4182 21.3965 19.689 22.6672 21.2516 22.6672H28.3349C31.4601 22.6672 34.0002 25.2087 34.0002 28.3339ZM31.9247 12.0932C34.6872 9.3307 34.6872 4.83704 31.9247 2.07595C30.5874 0.73862 28.8081 0.00195312 26.9168 0.00195312C25.0256 0.00195312 23.2462 0.73862 21.9075 2.07595C19.1464 4.83845 19.1464 9.33212 21.9188 12.1045L26.9168 16.992L31.9247 12.0932ZM29.9216 4.07912C31.5791 5.73662 31.5791 8.43254 29.9329 10.0787L26.9168 13.0282L23.9107 10.09C22.2546 8.43254 22.2546 5.73662 23.9107 4.07912C24.7139 3.27587 25.7807 2.83387 26.9168 2.83387C28.053 2.83387 29.1197 3.27729 29.9216 4.07912ZM12.0914 29.0932C14.8539 26.3307 14.8539 21.837 12.0914 19.076C10.7541 17.7386 8.97474 17.002 7.08349 17.002C5.19224 17.002 3.41291 17.7386 2.07416 19.076C-0.686925 21.8385 -0.686925 26.3321 2.08549 29.1045L7.08349 33.992L12.0914 29.0932ZM10.0882 21.0791C11.7457 22.7366 11.7457 25.4325 10.0996 27.0787L7.08349 30.0282L4.07733 27.09C2.42124 25.4325 2.42124 22.7366 4.07733 21.0791C4.88058 20.2759 5.94733 19.8339 7.08349 19.8339C8.21966 19.8339 9.28641 20.2773 10.0882 21.0791Z" fill="#D9D9D9"/>
</svg>
