<svg width="250" height="251" viewBox="0 0 250 251" fill="none" xmlns="http://www.w3.org/2000/svg">
<path d="M6 228.5C7.5 205.5 45 136 125.5 136C206 136 245 206 245.5 228.5" stroke="white" stroke-width="8"/>
<path d="M192.677 69.6145C192.677 106.131 163.095 135.729 126.61 135.729C90.1253 135.729 60.5442 106.131 60.5442 69.6145C60.5442 33.0983 90.1253 3.50022 126.61 3.50022C163.095 3.50022 192.677 33.0983 192.677 69.6145Z" stroke="#00CBFF" stroke-width="7"/>
<path d="M204.939 107.939C204.354 108.525 204.354 109.475 204.939 110.061L214.485 119.607C215.071 120.192 216.021 120.192 216.607 119.607C217.192 119.021 217.192 118.071 216.607 117.485L208.121 109L216.607 100.515C217.192 99.9289 217.192 98.9792 216.607 98.3934C216.021 97.8076 215.071 97.8076 214.485 98.3934L204.939 107.939ZM244 107.5L206 107.5V110.5L244 110.5V107.5Z" fill="white"/>
<path d="M245.061 143.061C245.646 142.475 245.646 141.525 245.061 140.939L235.515 131.393C234.929 130.808 233.979 130.808 233.393 131.393C232.808 131.979 232.808 132.929 233.393 133.515L241.879 142L233.393 150.485C232.808 151.071 232.808 152.021 233.393 152.607C233.979 153.192 234.929 153.192 235.515 152.607L245.061 143.061ZM206 143.5H244V140.5H206V143.5Z" fill="#00CBFF"/>
</svg>
