<svg width="250" height="250" viewBox="0 0 250 250" fill="none" xmlns="http://www.w3.org/2000/svg">
<circle cx="125" cy="125" r="121.5" stroke="white" stroke-width="7"/>
<path fill-rule="evenodd" clip-rule="evenodd" d="M207.49 218.795C202.894 179.824 167.816 149 124.5 149C81.4839 149 46.592 179.398 41.6103 217.986C39.4999 216.072 37.4541 214.087 35.4768 212.034C43.1809 172.197 80.1078 142 124.5 142C169.212 142 206.35 172.633 213.685 212.896C211.687 214.932 209.62 216.899 207.49 218.795ZM34 227.489C34 227.493 34 227.496 34 227.5C34 228.12 34.007 228.739 34.0209 229.356C34.0071 228.735 34.0001 228.113 34 227.489Z" fill="white"/>
<path d="M171.5 98.5002C171.5 124.49 150.648 145.5 125 145.5C99.3515 145.5 78.5 124.49 78.5 98.5002C78.5 72.5099 99.3515 51.5002 125 51.5002C150.648 51.5002 171.5 72.5099 171.5 98.5002Z" stroke="#00CBFF" stroke-width="7"/>
</svg>
